<?xml version="1.0" standalone="no"?>
<!DOCTYPE svg PUBLIC "-//W3C//DTD SVG 20010904//EN"
 "http://www.w3.org/TR/2001/REC-SVG-20010904/DTD/svg10.dtd">
<svg version="1.0" xmlns="http://www.w3.org/2000/svg"
 width="288.000000pt" height="288.000000pt" viewBox="0 0 288.000000 288.000000"
 preserveAspectRatio="xMidYMid meet">
<metadata>
Created by potrace 1.11, written by Peter Selinger 2001-2013
</metadata>
<g transform="translate(0.000000,288.000000) scale(0.100000,-0.100000)"
fill="#000000" stroke="none">
<path d="M1250 2870 c-66 -9 -189 -35 -196 -43 -2 -2 87 -96 199 -208 l204
-204 -34 -18 c-47 -24 -78 -21 -113 11 -23 20 -31 37 -33 66 -3 57 -28 69 -62
28 -52 -62 -127 -49 -163 27 -22 47 -41 45 -66 -4 -38 -73 -111 -83 -162 -22
-33 40 -58 28 -61 -29 -2 -29 -10 -46 -33 -66 -35 -32 -69 -35 -110 -12 -36
22 -65 12 -55 -19 21 -63 17 -91 -14 -121 -26 -25 -38 -29 -80 -27 -61 2 -73
-17 -36 -61 14 -16 25 -42 25 -58 0 -37 -44 -90 -75 -90 -24 0 -55 -23 -55
-41 0 -5 10 -13 22 -18 32 -12 57 -42 63 -77 7 -37 -25 -91 -60 -100 -14 -3
-25 -12 -25 -19 0 -23 12 -45 21 -39 19 11 75 -17 93 -47 22 -37 16 -82 -16
-116 -30 -32 -12 -48 53 -48 45 0 54 -4 75 -30 26 -32 31 -74 13 -107 -9 -16
-8 -24 4 -36 14 -14 18 -13 41 1 38 25 92 22 121 -8 14 -13 25 -32 26 -42 1
-10 2 -29 2 -43 2 -32 39 -39 59 -12 17 25 51 42 82 42 31 0 84 -44 88 -73 2
-14 11 -23 25 -25 17 -3 25 5 37 31 32 77 118 90 164 25 8 -11 23 -18 35 -16
18 2 23 12 28 52 4 34 12 54 28 67 29 23 83 24 117 2 23 -14 27 -15 41 -1 12
12 13 20 4 36 -18 33 -13 75 13 107 21 26 30 30 75 30 69 0 80 14 47 58 -14
18 -26 44 -26 56 0 50 50 101 99 101 26 0 37 32 15 45 -50 30 -66 52 -68 92
-1 46 32 93 66 93 18 0 23 16 12 44 -4 10 -18 16 -39 16 -25 0 -40 8 -59 31
-33 39 -33 79 0 118 35 41 26 63 -24 60 -60 -3 -70 0 -97 28 -27 30 -32 67
-13 108 12 26 13 25 185 -150 95 -97 173 -183 173 -191 0 -8 -9 -49 -21 -92
-11 -42 -39 -144 -61 -227 -22 -82 -49 -181 -59 -220 -10 -38 -28 -107 -40
-151 l-21 -81 -106 -28 c-59 -15 -170 -45 -247 -65 -337 -91 -411 -110 -423
-110 -7 0 -189 174 -403 388 -214 213 -393 387 -397 387 -3 0 -15 -38 -25 -85
-26 -121 -28 -391 -3 -515 59 -296 174 -519 375 -728 256 -266 586 -412 957
-424 162 -6 268 5 389 38 38 10 79 19 90 19 12 0 47 -27 85 -65 l64 -65 448 0
448 0 0 487 0 487 -60 61 -61 61 22 90 c30 123 33 426 5 554 -26 120 -78 274
-121 361 -236 468 -695 759 -1220 774 -71 2 -159 0 -195 -5z m-312 -492 c17
-17 15 -73 -4 -89 -14 -11 -106 -53 -144 -65 -20 -7 -70 39 -70 64 0 27 29 50
97 78 64 26 103 30 121 12z m276 -8 c104 -40 129 -78 80 -126 -27 -28 -29 -28
-116 8 -75 32 -88 44 -88 82 0 60 33 70 124 36z m-176 -58 c3 -17 -2 -22 -17
-22 -14 0 -21 6 -21 18 0 38 33 41 38 4z m145 -107 c79 -40 157 -125 187 -204
30 -81 26 -210 -10 -284 -34 -71 -104 -144 -174 -180 -56 -29 -68 -32 -161
-32 -87 0 -107 3 -155 26 -149 70 -227 199 -218 363 8 151 94 271 235 327 38
15 68 18 143 16 83 -2 103 -6 153 -32z m-455 -18 c4 -20 -25 -34 -39 -20 -14
14 1 45 20 41 9 -2 17 -11 19 -21z m626 7 c8 -21 -1 -34 -25 -34 -12 0 -19 7
-19 18 0 34 33 45 44 16z m-701 -56 l20 -27 -27 -63 c-48 -111 -46 -108 -86
-108 -48 0 -64 19 -57 65 7 43 53 146 70 157 22 15 60 3 80 -24z m813 24 c19
-12 63 -108 70 -151 8 -51 -7 -71 -51 -71 -39 0 -51 13 -83 88 -35 84 -35 85
-12 115 21 26 53 34 76 19z m-866 -292 c0 -23 -35 -28 -43 -6 -7 18 1 26 25
26 11 0 18 -7 18 -20z m885 0 c0 -8 -10 -16 -22 -18 -18 -3 -23 2 -23 18 0 16
5 21 23 18 12 -2 22 -10 22 -18z m-853 -145 c16 -38 32 -77 34 -85 6 -20 -42
-70 -67 -70 -22 0 -52 41 -78 109 -36 91 -24 124 43 119 38 -3 40 -5 68 -73z
m898 60 c17 -21 7 -73 -27 -142 -34 -68 -52 -82 -86 -64 -45 24 -51 50 -24
111 13 30 29 67 35 83 10 23 17 27 51 27 22 0 44 -6 51 -15z m-800 -225 c0
-13 -7 -20 -19 -20 -22 0 -35 15 -26 30 12 19 45 11 45 -10z m625 0 c0 -8 -10
-16 -22 -18 -18 -3 -23 2 -23 18 0 16 5 21 23 18 12 -2 22 -10 22 -18z m-523
-59 c18 -10 47 -22 65 -26 42 -8 55 -26 51 -71 -5 -57 -25 -63 -105 -35 -120
41 -148 78 -101 128 26 28 47 29 90 4z m468 -6 c20 -21 22 -30 14 -52 -10 -29
-70 -64 -146 -84 -58 -16 -78 -3 -78 50 0 39 14 61 40 61 8 0 38 11 65 25 63
31 76 31 105 0z m-262 -63 c3 -17 -2 -22 -17 -22 -14 0 -21 6 -21 18 0 38 33
41 38 4z"/>
</g>
</svg>
